<svg xmlns="http://www.w3.org/2000/svg" width="250.32" height="35" viewBox="0 0 250.32 35"><rect class="svg__rect" x="0" y="0" width="118.29" height="35" fill="#000000"/><rect class="svg__rect" x="116.29" y="0" width="134.03" height="35" fill="#6E16C9"/><path class="svg__text" d="M17.33 22L14.22 22L14.22 13.47L17.14 13.47Q18.59 13.47 19.34 14.05Q20.10 14.63 20.10 15.78L20.10 15.78Q20.10 16.36 19.78 16.83Q19.47 17.30 18.86 17.56L18.86 17.56Q19.55 17.75 19.93 18.26Q20.31 18.78 20.31 19.51L20.31 19.51Q20.31 20.71 19.53 21.36Q18.76 22 17.33 22L17.33 22ZM15.70 18.15L15.70 20.82L17.35 20.82Q18.04 20.82 18.44 20.47Q18.83 20.13 18.83 19.51L18.83 19.51Q18.83 18.18 17.47 18.15L17.47 18.15L15.70 18.15ZM15.70 14.66L15.70 17.06L17.15 17.06Q17.84 17.06 18.23 16.75Q18.62 16.43 18.62 15.86L18.62 15.86Q18.62 15.23 18.26 14.95Q17.90 14.66 17.14 14.66L17.14 14.66L15.70 14.66ZM24.64 19.16L24.64 19.16L24.64 13.47L26.12 13.47L26.12 19.18Q26.12 20.03 26.55 20.48Q26.98 20.93 27.83 20.93L27.83 20.93Q29.54 20.93 29.54 19.13L29.54 19.13L29.54 13.47L31.02 13.47L31.02 19.17Q31.02 20.53 30.15 21.32Q29.28 22.12 27.83 22.12L27.83 22.12Q26.36 22.12 25.50 21.33Q24.64 20.55 24.64 19.16ZM37.15 22L35.67 22L35.67 13.47L37.15 13.47L37.15 22ZM47.32 22L41.96 22L41.96 13.47L43.44 13.47L43.44 20.82L47.32 20.82L47.32 22ZM53.90 22L51.44 22L51.44 13.47L53.96 13.47Q55.09 13.47 55.97 13.97Q56.84 14.48 57.32 15.40Q57.81 16.33 57.81 17.52L57.81 17.52L57.81 17.95Q57.81 19.16 57.32 20.08Q56.84 21.00 55.94 21.50Q55.05 22 53.90 22L53.90 22ZM52.92 14.66L52.92 20.82L53.89 20.82Q55.06 20.82 55.68 20.09Q56.31 19.36 56.32 17.99L56.32 17.99L56.32 17.52Q56.32 16.13 55.71 15.40Q55.11 14.66 53.96 14.66L53.96 14.66L52.92 14.66ZM69.63 22L67.66 13.47L69.13 13.47L70.46 19.88L72.08 13.47L73.33 13.47L74.94 19.89L76.25 13.47L77.72 13.47L75.75 22L74.33 22L72.71 15.77L71.05 22L69.63 22ZM83.36 22L81.88 22L81.88 13.47L83.36 13.47L83.36 22ZM89.85 14.66L87.21 14.66L87.21 13.47L93.98 13.47L93.98 14.66L91.32 14.66L91.32 22L89.85 22L89.85 14.66ZM99.22 22L97.74 22L97.74 13.47L99.22 13.47L99.22 17.02L103.03 17.02L103.03 13.47L104.51 13.47L104.51 22L103.03 22L103.03 18.21L99.22 18.21L99.22 22Z" fill="#844FBA"/><path class="svg__text" d="M132.27 15.48L129.69 15.48L129.69 13.60L137.21 13.60L137.21 15.48L134.64 15.48L134.64 22L132.27 22L132.27 15.48ZM148.33 22L141.58 22L141.58 13.60L148.17 13.60L148.17 15.44L143.94 15.44L143.94 16.85L147.67 16.85L147.67 18.63L143.94 18.63L143.94 20.17L148.33 20.17L148.33 22ZM155.51 22L153.13 22L153.13 13.60L156.97 13.60Q158.12 13.60 158.95 13.98Q159.79 14.35 160.25 15.06Q160.71 15.76 160.71 16.71L160.71 16.71Q160.71 17.62 160.28 18.30Q159.85 18.98 159.06 19.36L159.06 19.36L160.87 22L158.33 22L156.80 19.77L155.51 19.77L155.51 22ZM155.51 15.47L155.51 17.93L156.83 17.93Q157.56 17.93 157.93 17.61Q158.30 17.29 158.30 16.71L158.30 16.71Q158.30 16.12 157.93 15.79Q157.56 15.47 156.83 15.47L156.83 15.47L155.51 15.47ZM167.87 22L165.49 22L165.49 13.60L169.34 13.60Q170.48 13.60 171.32 13.98Q172.16 14.35 172.61 15.06Q173.07 15.76 173.07 16.71L173.07 16.71Q173.07 17.62 172.64 18.30Q172.21 18.98 171.42 19.36L171.42 19.36L173.23 22L170.69 22L169.17 19.77L167.87 19.77L167.87 22ZM167.87 15.47L167.87 17.93L169.19 17.93Q169.92 17.93 170.30 17.61Q170.67 17.29 170.67 16.71L170.67 16.71Q170.67 16.12 170.30 15.79Q169.92 15.47 169.19 15.47L169.19 15.47L167.87 15.47ZM179.27 22L176.85 22L180.56 13.60L182.90 13.60L186.62 22L184.15 22L183.49 20.37L179.94 20.37L179.27 22ZM181.71 15.93L180.63 18.61L182.79 18.61L181.71 15.93ZM193.15 22L190.77 22L190.77 13.60L197.36 13.60L197.36 15.44L193.15 15.44L193.15 17.28L196.86 17.28L196.86 19.12L193.15 19.12L193.15 22ZM201.53 17.80L201.53 17.80Q201.53 16.55 202.13 15.55Q202.74 14.56 203.80 14.00Q204.86 13.43 206.19 13.43L206.19 13.43Q207.52 13.43 208.59 14.00Q209.65 14.56 210.26 15.55Q210.86 16.55 210.86 17.80L210.86 17.80Q210.86 19.05 210.26 20.04Q209.65 21.04 208.59 21.60Q207.53 22.17 206.19 22.17L206.19 22.17Q204.86 22.17 203.80 21.60Q202.74 21.04 202.13 20.04Q201.53 19.05 201.53 17.80ZM203.93 17.80L203.93 17.80Q203.93 18.51 204.23 19.05Q204.53 19.60 205.04 19.90Q205.56 20.20 206.19 20.20L206.19 20.20Q206.83 20.20 207.35 19.90Q207.86 19.60 208.16 19.05Q208.46 18.51 208.46 17.80L208.46 17.80Q208.46 17.09 208.16 16.54Q207.86 16 207.35 15.70Q206.83 15.40 206.19 15.40L206.19 15.40Q205.55 15.40 205.04 15.70Q204.53 16 204.23 16.54Q203.93 17.09 203.93 17.80ZM217.97 22L215.59 22L215.59 13.60L219.43 13.60Q220.58 13.60 221.42 13.98Q222.25 14.35 222.71 15.06Q223.17 15.76 223.17 16.71L223.17 16.71Q223.17 17.62 222.74 18.30Q222.31 18.98 221.52 19.36L221.52 19.36L223.33 22L220.79 22L219.27 19.77L217.97 19.77L217.97 22ZM217.97 15.47L217.97 17.93L219.29 17.93Q220.02 17.93 220.39 17.61Q220.77 17.29 220.77 16.71L220.77 16.71Q220.77 16.12 220.39 15.79Q220.02 15.47 219.29 15.47L219.29 15.47L217.97 15.47ZM230.15 22L227.95 22L227.95 13.60L229.91 13.60L232.86 18.45L235.75 13.60L237.70 13.60L237.72 22L235.54 22L235.52 17.55L233.36 21.17L232.30 21.17L230.15 17.67L230.15 22Z" fill="#000000" x="129.29000000000002"/></svg>
